<svg width="158" height="81" viewBox="0 0 158 81" fill="none" xmlns="http://www.w3.org/2000/svg">
<path d="M31.5 52.8232V55.1758L29 56.5645L26.5 55.1758V52.8232L29 51.4346L31.5 52.8232Z" stroke="#B5FF00" stroke-width="13"/>
<path d="M42.5 69.8232V72.1758L40 73.5645L37.5 72.1758V69.8232L40 68.4346L42.5 69.8232Z" stroke="#093E0A" stroke-width="13"/>
<path d="M42.5 34.8232V37.1758L40 38.5645L37.5 37.1758V34.8232L40 33.4346L42.5 34.8232Z" stroke="#B5FF00" stroke-width="13"/>
<path d="M11.5 52.8232V55.1758L9 56.5645L6.5 55.1758V52.8232L9 51.4346L11.5 52.8232Z" stroke="#B5FF00" stroke-width="13"/>
<path d="M20.5 34.8232V37.1758L18 38.5645L15.5 37.1758V34.8232L18 33.4346L20.5 34.8232Z" stroke="#093E0A" stroke-width="13"/>
<path d="M31.5 17.8232V20.1758L29 21.5645L26.5 20.1758V17.8232L29 16.4346L31.5 17.8232Z" stroke="#B5FF00" stroke-width="13"/>
<path d="M121.323 12.4463C109.735 16.4109 100.926 21.5877 93.1436 26.958L104 47L118 23H124L106 54H102L88.8438 30.0088C85.5915 32.3667 82.4701 34.723 79.3369 36.9971C78.8918 37.3202 78.4459 37.6407 78 37.96V54H72V42.0596C68.5279 44.2978 64.9201 46.3524 61 48.1094V54H55V50.4629C49.7197 52.243 43.8308 53.4827 37 53.9668V54H31V23H37V35H55V23H61V45.9111C64.9019 44.1 68.5036 41.9827 72 39.6729V23H78V35.4951C78.0542 35.4558 78.1089 35.4173 78.1631 35.3779C81.3362 33.0749 84.5245 30.6643 87.874 28.2402L85 23H91L92.1855 25.1895C100.015 19.8024 108.962 14.5614 120.677 10.5537L121.323 12.4463ZM153 41H135V48H158V54H129V35.5H153V41ZM37 51.9619C43.8584 51.4643 49.7339 50.1862 55 48.3486V41H37V51.9619ZM158 29H129V23H158V29ZM131.619 1.44434L132.024 2.26758C132.694 3.64834 133.237 4.8593 133.697 6.03223L135.553 5.10547H135.555L135.557 5.10352C135.559 5.10258 135.562 5.10195 135.564 5.10059C135.57 5.09778 135.578 5.09339 135.587 5.08887C135.606 5.07966 135.633 5.06711 135.666 5.05176C135.732 5.02106 135.825 4.97874 135.938 4.93066C136.164 4.83517 136.481 4.71251 136.838 4.60547C137.19 4.4998 137.611 4.40066 138.038 4.37012C138.452 4.34053 138.97 4.36699 139.447 4.60547L140.342 5.05273L139.895 5.94727C139.67 6.3958 139.312 6.72894 138.986 6.96582C138.653 7.20826 138.288 7.39712 137.969 7.53906C137.646 7.68263 137.344 7.78923 137.125 7.85938C137.015 7.89461 136.923 7.921 136.857 7.93945C136.825 7.94867 136.798 7.95582 136.778 7.96094C136.769 7.96348 136.761 7.96624 136.755 7.96777C136.752 7.96853 136.749 7.96922 136.747 7.96973H136.744L136.743 7.9707L136.5 7L136.742 7.9707L136.731 7.97363L136.721 7.97559L134.551 8.4668C134.924 9.67488 135.242 10.9392 135.551 12.4004L135.726 13.2559L135.971 14.4814L133.519 14.9707L133.274 13.7441L133.107 12.9336C132.798 11.468 132.48 10.2201 132.103 9.02148L132.079 9.02734L126.756 10.8018L125.929 12.8711L125.557 13.7998L123.7 13.0566L124.071 12.1289L124.826 10.2402L122.586 8L124 6.58594L126.27 8.85547L131.441 7.13184C130.99 5.95998 130.451 4.75042 129.769 3.3457L129.381 2.55566L128.824 1.43652L131.063 0.324219L131.619 1.44434Z" fill="black"/>
</svg>
